<?xml version="1.0" encoding="UTF-8" standalone="no"?>
<svg
   version="1.1"
   width="100"
   height="137.70528"
   style="clip-rule:evenodd;fill-rule:evenodd;image-rendering:optimizeQuality;shape-rendering:geometricPrecision;text-rendering:geometricPrecision"
   id="svg77"
   xmlns="http://www.w3.org/2000/svg"
   xmlns:svg="http://www.w3.org/2000/svg">
  <defs
     id="defs77" />
  <g
     id="g79"
     transform="matrix(0.12079142,0,0,0.12079142,-9.3798609,-23.856268)">
    <path
       style="opacity:1"
       fill="#13212e"
       d="m 742.5,1190.5 c -2.757,-3.74 -2.257,-4.41 1.5,-2 3.104,-2.14 3.27,-4.47 0.5,-7 0.5,-1 1,-2 1.5,-3 0.718,0.95 1.551,1.12 2.5,0.5 -1.042,-1.92 -2.208,-3.75 -3.5,-5.5 -0.671,0.75 -1.504,1.09 -2.5,1 30.643,-28.2 50.143,-62.87 58.5,-104 6.99,-38.47 7.157,-76.808 0.5,-115 -2.649,-23.783 -7.483,-47.116 -14.5,-70 -12.204,-36.445 -24.704,-72.779 -37.5,-109 0.346,-1.196 0.846,-1.196 1.5,0 13.094,24.202 24.927,48.868 35.5,74 9.476,28.833 17.643,58.166 24.5,88 14.283,21.95 32.783,39.45 55.5,52.5 8.795,4.508 17.295,4.008 25.5,-1.5 0.667,-1.333 1.333,-2.667 2,-4 0.821,-7.179 0.655,-14.179 -0.5,-21 0.07,-3.925 -0.597,-7.591 -2,-11 -20.021,-72.719 -54.187,-137.719 -102.5,-195 -3.702,-3.87 -7.536,-7.537 -11.5,-11 -1.959,-3.626 -4.626,-6.626 -8,-9 -9.873,-10.111 -19.54,-20.445 -29,-31 -21.45,9.984 -43.784,17.484 -67,22.5 3.614,3.103 6.614,6.603 9,10.5 31.553,39.766 54.72,84.1 69.5,133 18.79,57.62 25.456,116.62 20,177 -2.1,14.02 -5.267,27.68 -9.5,41 -5.881,12.13 -11.714,24.8 -17.5,38 -7.385,7.56 -13.885,15.9 -19.5,25 -5.895,5.47 -11.561,11.14 -17,17 -2.225,1.39 -4.558,2.56 -7,3.5 -1.428,2.18 -3.095,4.18 -5,6 -23.192,16.6 -48.525,28.93 -76,37 -2.739,1.03 -5.072,2.53 -7,4.5 -5.151,0.83 -10.484,1.33 -16,1.5 -1.801,0.32 -2.134,0.98 -1,2 -2.054,-0.58 -4.054,-0.08 -6,1.5 1.667,1.67 1.333,2.67 -1,3 -2.645,-0.61 -5.312,-1.11 -8,-1.5 1.123,-1.04 2.456,-1.71 4,-2 -0.667,-1.33 -1.333,-2.67 -2,-4 -4.565,-0.32 -9.065,0.18 -13.5,1.5 -0.5,-0.33 -1,-0.67 -1.5,-1 3.967,-0.97 7.967,-1.81 12,-2.5 -0.594,-0.46 -1.261,-0.63 -2,-0.5 46.772,-7.19 88.439,-25.69 125,-55.5 18.753,-16.57 33.42,-36.07 44,-58.5 10.754,-23.11 16.921,-47.44 18.5,-73 2.692,-81.542 -14.641,-158.542 -52,-231 -11.349,-21.376 -24.682,-41.376 -40,-60 -3.702,-3.87 -7.536,-7.537 -11.5,-11 -1.41,-2.46 -3.576,-3.793 -6.5,-4 -4.812,1.07 -9.645,1.57 -14.5,1.5 15.873,-4.108 31.206,-9.608 46,-16.5 -1.414,1.554 -3.081,2.888 -5,4 1.223,1.114 2.556,1.281 4,0.5 15.88,-5.549 31.546,-11.549 47,-18 36.293,-21.729 57.793,-53.562 64.5,-95.5 0.413,-8.672 0.913,-17.339 1.5,-26 -0.003,-2.525 -0.337,-4.859 -1,-7 -0.256,-9.048 -1.089,-18.048 -2.5,-27 -5.042,-26.999 -10.875,-53.666 -17.5,-80 -13.371,-64.612 -46.704,-116.112 -100,-154.5 -28.096,-18.534 -58.763,-30.701 -92,-36.5 -4.091,-1.395 -8.424,-2.228 -13,-2.5 -11.672,-0.773 -23.338,-1.606 -35,-2.5 15.055,-1.931 29.722,-5.431 44,-10.5 3.968,-2.32 7.968,-4.653 12,-7 2.978,-3.131 5.311,-6.631 7,-10.5 0.538,-1.617 0.871,-3.284 1,-5 -13.77,1.755 -27.104,5.255 -40,10.5 -13.343,6.336 -26.343,13.17 -39,20.5 -2.509,1.56 -5.176,2.393 -8,2.5 13.251,-9.916 24.417,-21.749 33.5,-35.5 2.277,-4.887 4.277,-9.887 6,-15 0.81,-3.858 0.643,-7.524 -0.5,-11 -0.283,-0.789 -0.783,-1.456 -1.5,-2 -27.666,6.154 -50.333,20.154 -68,42 -4.15,6.133 -7.65,12.633 -10.5,19.5 -89.098,11.49 -155.931,55.99 -200.5,133.5 -6.626,13.247 -12.126,26.913 -16.5,41 -3.097,7.694 -5.597,15.694 -7.5,24 -6.975,31.209 -13.308,62.542 -19,94 -0.499,4.989 -0.666,9.989 -0.5,15 -2.524,43.235 12.143,79.735 44,109.5 15.934,13.134 33.934,22.301 54,27.5 0.333,-0.5 0.667,-1 1,-1.5 -0.84,-1.767 -2.173,-3.101 -4,-4 0.228,-0.399 0.562,-0.565 1,-0.5 18.883,11.769 39.216,20.269 61,25.5 -4.762,0.485 -9.429,-0.015 -14,-1.5 -2.378,2.052 -4.711,4.052 -7,6 -15.523,14.687 -29.023,31.02 -40.5,49 -36.772,61.424 -58.606,127.758 -65.5,199 -1.516,9.386 -2.182,19.55 -2,30.5 -0.003,10.19 0.497,20.36 1.5,30.5 0.49,-1.29 0.657,-2.63 0.5,-4 2.472,20.89 7.639,41.22 15.5,61 2.274,4.89 4.774,9.55 7.5,14 5.664,10.66 12.331,20.66 20,30 1.043,2.56 2.71,4.72 5,6.5 -1.939,0.91 -2.939,2.41 -3,4.5 -3.192,-1.67 -6.025,-4.01 -8.5,-7 -3.849,-5.23 -7.516,-10.57 -11,-16 -0.155,-2.36 -0.155,-4.69 0,-7 -0.72,1.76 -1.887,2.59 -3.5,2.5 -3.031,-6.71 -6.531,-13.21 -10.5,-19.5 -0.333,0.67 -0.667,1.33 -1,2 -2.53,-8.24 -5.363,-16.24 -8.5,-24 -9.687,-36.09 -12.52,-72.76 -8.5,-110 6.337,-71.641 28.337,-137.974 66,-199 9.266,-12.875 18.766,-25.542 28.5,-38 3.646,-2.979 6.979,-6.312 10,-10 -23.285,-3.741 -45.452,-10.741 -66.5,-21 -1.635,0.378 -3.135,1.044 -4.5,2 -9.429,10.096 -19.096,19.763 -29,29 -2.249,0.58 -3.915,1.913 -5,4 -38.767,25.443 -78.433,26.61 -119,3.5 -9.502,-5.919 -19.169,-11.586 -29,-17 -8.0672,-0.961 -13.0672,2.539 -15,10.5 -2.464,4.919 -3.464,10.252 -3,16 2.9731,45.443 21.973,82.61 57,111.5 23.827,18.272 50.827,26.272 81,24 5.556,-12.456 10.723,-24.956 15.5,-37.5 0.896,-2.525 0.396,-4.692 -1.5,-6.5 0.949,-0.617 1.782,-0.451 2.5,0.5 0.748,-1.832 1.748,-3.499 3,-5 3.74,-8.572 7.24,-17.239 10.5,-26 7.039,-15.744 14.872,-31.077 23.5,-46 0.167,0.5 0.333,1 0.5,1.5 -9.204,29.227 -19.371,58.06 -30.5,86.5 -7.467,23.535 -14.467,47.202 -21,71 -1.861,9.587 -3.028,19.254 -3.5,29 -1.516,7.203 -2.349,14.536 -2.5,22 -0.5,12.329 -0.667,24.66 -0.5,37 -1.25,-0.08 -2.083,-0.74 -2.5,-2 -0.5,0.5 -1,1 -1.5,1.5 0.837,1.01 1.17,2.18 1,3.5 -1.699,-0.16 -3.366,0.01 -5,0.5 0.88,1.36 1.214,2.86 1,4.5 -1.322,0.17 -2.489,-0.16 -3.5,-1 -0.169,-12.84 -0.669,-25.507 -1.5,-38 1.428,-27.902 6.095,-55.235 14,-82 -55.884,-1.845 -97.718,-26.845 -125.5,-75 -15.3351,-26.68 -22.0018,-55.347 -20,-86 1.8246,-11.19 7.6579,-19.357 17.5,-24.5 6.652,-1.035 12.985,-0.035 19,3 16.106,11.887 33.772,20.887 53,27 24.593,6.676 47.927,3.676 70,-9 16.21,-10.541 30.21,-23.541 42,-39 -44.776,-34.402 -64.943,-79.902 -60.5,-136.5 6.748,-47.993 17.748,-94.993 33,-141 24.569,-60.906 65.736,-107.073 123.5,-138.5 29.93,-14.463 61.263,-24.63 94,-30.5 17.727,-29.05 43.06,-48.216 76,-57.5 4.667,-0.667 9.333,-0.667 14,0 1.201,0.903 2.035,2.069 2.5,3.5 1.409,13.122 -1.091,25.455 -7.5,37 0.333,0.333 0.667,0.667 1,1 15.371,-6.854 31.371,-10.687 48,-11.5 2.108,0.36 4.108,1.027 6,2 1.7,6.143 0.867,11.976 -2.5,17.5 -3.789,6.123 -8.622,11.29 -14.5,15.5 91.365,20.36 153.198,74.527 185.5,162.5 11.193,34.105 20.193,68.771 27,104 6.004,28.489 7.004,57.156 3,86 -8.668,35.791 -27.501,64.791 -56.5,87 18.351,19.85 36.518,39.85 54.5,60 45.597,58.193 78.264,123.193 98,195 2.327,11.776 1.994,23.443 -1,35 -7.366,11.49 -17.866,15.66 -31.5,12.5 -22.097,-8.081 -40.263,-21.581 -54.5,-40.5 5.114,44.28 1.78,87.94 -10,131 -11.621,38.64 -33.121,70.3 -64.5,95 z"
       id="path79" />
  </g>
  <g
     id="g80"
     transform="matrix(0.12079142,0,0,0.12079142,-9.3798609,-23.856268)">
    <path
       style="opacity:1"
       fill="#47515e"
       d="m 253.5,743.5 c -3.402,2.719 -6.402,5.886 -9,9.5 1.049,0.492 2.049,0.326 3,-0.5 1.196,0.346 1.196,0.846 0,1.5 -3.644,2.656 -7.644,4.489 -12,5.5 0.381,2.442 -0.286,3.109 -2,2 -2.253,0.753 -4.087,2.086 -5.5,4 -0.604,-2.186 -1.77,-2.352 -3.5,-0.5 0.333,0.333 0.667,0.667 1,1 -2.159,0.912 -4.325,1.745 -6.5,2.5 -3,0 -6,0 -9,0 -2.507,1.655 -5.341,2.489 -8.5,2.5 -20.047,1.724 -39.047,-1.943 -57,-11 -12.796,-6.564 -25.13,-13.898 -37,-22 -6.014,-2.586 -11.3476,-1.752 -16,2.5 -0.3333,0 -0.6667,0 -1,0 1.9328,-7.961 6.9328,-11.461 15,-10.5 9.831,5.414 19.498,11.081 29,17 40.567,23.11 80.233,21.943 119,-3.5 z"
       id="path80" />
  </g>
  <g
     id="g81"
     transform="matrix(0.12079142,0,0,0.12079142,-9.3798609,-23.856268)">
    <path
       style="opacity:1"
       fill="#d4cec9"
       d="m 756.5,651.5 c -7.804,11.919 -16.804,22.919 -27,33 -13.32,10.329 -27.32,19.662 -42,28 -14.794,6.892 -30.127,12.392 -46,16.5 4.855,0.07 9.688,-0.43 14.5,-1.5 2.924,0.207 5.09,1.54 6.5,4 -0.438,-0.065 -0.772,0.101 -1,0.5 3,3 6,6 9,9 -28.48,1.458 -56.813,0.125 -85,-4 -1.746,-0.471 -3.413,-1.138 -5,-2 37.686,-5.563 73.686,-16.563 108,-33 28.932,-14.901 52.765,-35.734 71.5,-62.5 -0.881,3.783 -2.381,7.45 -4.5,11 0.124,0.607 0.457,0.94 1,1 z"
       id="path81" />
  </g>
  <g
     id="g82"
     transform="matrix(0.12079142,0,0,0.12079142,-9.3798609,-23.856268)">
    <path
       style="opacity:1"
       fill="#212c37"
       d="m 348.5,739.5 c -30,0 -60,0 -90,0 9.904,-9.237 19.571,-18.904 29,-29 1.365,-0.956 2.865,-1.622 4.5,-2 21.048,10.259 43.215,17.259 66.5,21 -3.021,3.688 -6.354,7.021 -10,10 z"
       id="path82" />
  </g>
  <g
     id="g83"
     transform="matrix(0.12079142,0,0,0.12079142,-9.3798609,-23.856268)">
    <path
       style="opacity:1"
       fill="#212c37"
       d="m 769.5,738.5 c -29.128,0.651 -58.128,1.318 -87,2 -2.386,-3.897 -5.386,-7.397 -9,-10.5 23.216,-5.016 45.55,-12.516 67,-22.5 9.46,10.555 19.127,20.889 29,31 z"
       id="path83" />
  </g>
  <g
     id="g84"
     transform="matrix(0.12079142,0,0,0.12079142,-9.3798609,-23.856268)">
    <path
       style="opacity:1"
       fill="#d5cec9"
       d="m 264.5,637.5 c 7.302,10.488 15.635,20.321 25,29.5 46.87,39.862 101.204,62.195 163,67 -5.478,2.122 -11.145,3.788 -17,5 -24.301,2.833 -48.634,3.166 -73,1 1.667,-1.667 3.333,-3.333 5,-5 -0.228,-0.399 -0.562,-0.565 -1,-0.5 2.289,-1.948 4.622,-3.948 7,-6 4.571,1.485 9.238,1.985 14,1.5 -21.784,-5.231 -42.117,-13.731 -61,-25.5 -9.167,-6.085 -18.167,-12.418 -27,-19 -14.789,-13.779 -26.456,-29.779 -35,-48 z"
       id="path84" />
  </g>
  <g
     id="g85"
     transform="matrix(0.12079142,0,0,0.12079142,-9.3798609,-23.856268)">
    <path
       style="opacity:1"
       fill="#212c37"
       d="m 798.5,570.5 c 0.663,2.141 0.997,4.475 1,7 -0.587,8.661 -1.087,17.328 -1.5,26 -6.707,41.938 -28.207,73.771 -64.5,95.5 -15.454,6.451 -31.12,12.451 -47,18 -1.444,0.781 -2.777,0.614 -4,-0.5 1.919,-1.112 3.586,-2.446 5,-4 14.68,-8.338 28.68,-17.671 42,-28 4.572,-3.063 8.739,-6.73 12.5,-11 0.333,0.667 0.667,1.333 1,2 2.183,-1.947 4.516,-3.614 7,-5 0.333,0.667 0.667,1.333 1,2 0.333,-2 0.667,-4 1,-6 4.929,-5.543 9.096,-11.543 12.5,-18 0.31,1.238 0.81,1.238 1.5,0 1.968,-3.96 4.635,-7.293 8,-10 5.464,-8.449 10.464,-17.115 15,-26 4.562,-13.72 7.729,-27.72 9.5,-42 z"
       id="path85" />
  </g>
  <g
     id="g86"
     transform="matrix(0.12079142,0,0,0.12079142,-9.3798609,-23.856268)">
    <path
       style="opacity:1"
       fill="#212d38"
       d="m 230.5,573.5 c 2.53,9.153 4.364,18.486 5.5,28 1.562,2.457 2.562,5.124 3,8 3.947,7.894 8.28,16.561 13,26 4.754,5.435 8.754,11.435 12,18 0.838,1.499 1.671,1.832 2.5,1 3.754,5.267 7.754,10.433 12,15.5 2.795,1.793 5.295,3.96 7.5,6.5 0.333,-0.667 0.667,-1.333 1,-2 3.761,4.27 7.928,7.937 12.5,11 8.833,6.582 17.833,12.915 27,19 -0.438,-0.065 -0.772,0.101 -1,0.5 1.827,0.899 3.16,2.233 4,4 -0.333,0.5 -0.667,1 -1,1.5 -20.066,-5.199 -38.066,-14.366 -54,-27.5 -31.857,-29.765 -46.524,-66.265 -44,-109.5 z"
       id="path86" />
  </g>
  <g
     id="g87"
     transform="matrix(0.12079142,0,0,0.12079142,-9.3798609,-23.856268)">
    <path
       style="opacity:1"
       fill="#172330"
       d="m 472.5,514.5 c -0.767,-0.672 -1.434,-1.505 -2,-2.5 1.333,-1.84 1.166,-2.34 -0.5,-1.5 -2.119,-2.269 -2.452,-4.602 -1,-7 1.297,1.284 2.464,1.117 3.5,-0.5 -1.624,-1.117 -2.624,-2.617 -3,-4.5 1.205,-3.488 1.205,-6.822 0,-10 4.616,-40.997 -8.051,-75.497 -38,-103.5 -34.637,-23.119 -68.304,-21.786 -101,4 -40.292,38.541 -53.125,84.707 -38.5,138.5 -29.306,18.629 -41.306,45.295 -36,80 1.323,10.464 4.157,20.464 8.5,30 8.544,18.221 20.211,34.221 35,48 -4.572,-3.063 -8.739,-6.73 -12.5,-11 -0.333,0.667 -0.667,1.333 -1,2 -2.205,-2.54 -4.705,-4.707 -7.5,-6.5 -4.246,-5.067 -8.246,-10.233 -12,-15.5 -17.553,-27.704 -22.72,-57.704 -15.5,-90 6.81,-17.126 17.644,-30.959 32.5,-41.5 -13.62,-58.899 2.713,-107.566 49,-146 30.642,-20.097 62.308,-21.763 95,-5 22.238,14.611 37.071,34.777 44.5,60.5 8.5,27.311 8.666,54.644 0.5,82 z"
       id="path87" />
  </g>
  <g
     id="g88"
     transform="matrix(0.12079142,0,0,0.12079142,-9.3798609,-23.856268)">
    <path
       style="opacity:1"
       fill="#172430"
       d="m 764.5,648.5 c -3.404,6.457 -7.571,12.457 -12.5,18 -0.333,2 -0.667,4 -1,6 -0.333,-0.667 -0.667,-1.333 -1,-2 -2.484,1.386 -4.817,3.053 -7,5 -0.333,-0.667 -0.667,-1.333 -1,-2 -3.761,4.27 -7.928,7.937 -12.5,11 10.196,-10.081 19.196,-21.081 27,-33 16.431,-29.106 19.264,-59.439 8.5,-91 -7.068,-13.069 -16.902,-23.569 -29.5,-31.5 -1.074,-0.739 -1.741,-1.739 -2,-3 14.831,-54.503 1.165,-100.503 -41,-138 -23.488,-18.471 -49.488,-23.137 -78,-14 -17.154,7.15 -30.654,18.65 -40.5,34.5 -16.859,29.892 -21.359,61.559 -13.5,95 -0.624,0.417 -0.957,1.084 -1,2 2.478,8.764 5.144,17.431 8,26 -0.333,1.333 -0.667,2.667 -1,4 -2.021,-1.355 -3.688,-3.021 -5,-5 -20.664,-47.442 -16.831,-92.776 11.5,-136 27.944,-32.196 62.111,-41.029 102.5,-26.5 18.544,8.88 33.711,21.714 45.5,38.5 25.675,35.881 32.508,75.047 20.5,117.5 30.587,20.367 42.753,48.867 36.5,85.5 -2.229,13.857 -6.729,26.857 -13.5,39 z"
       id="path88" />
  </g>
  <g
     id="g89"
     transform="matrix(0.12079142,0,0,0.12079142,-9.3798609,-23.856268)">
    <path
       style="opacity:1"
       fill="#2c3844"
       d="m 554.5,206.5 c 1.143,3.476 1.31,7.142 0.5,11 -1.723,5.113 -3.723,10.113 -6,15 -9.083,13.751 -20.249,25.584 -33.5,35.5 2.824,-0.107 5.491,-0.94 8,-2.5 2.431,0.648 4.764,-0.018 7,-2 1.667,0.667 3.333,1.333 5,2 1.859,-1.692 3.859,-3.192 6,-4.5 16.481,-7.245 33.148,-13.911 50,-20 3.327,-0.61 6.661,-1.11 10,-1.5 -1.689,3.869 -4.022,7.369 -7,10.5 -4.032,2.347 -8.032,4.68 -12,7 -14.278,5.069 -28.945,8.569 -44,10.5 11.662,0.894 23.328,1.727 35,2.5 4.576,0.272 8.909,1.105 13,2.5 53.656,15.643 99.156,44.976 136.5,88 15.854,21.021 29.188,43.687 40,68 5.412,12.264 10.579,23.931 15.5,35 6.625,26.334 12.458,53.001 17.5,80 1.411,8.952 2.244,17.952 2.5,27 -1.771,14.28 -4.938,28.28 -9.5,42 -4.536,8.885 -9.536,17.551 -15,26 -3.365,2.707 -6.032,6.04 -8,10 -0.69,1.238 -1.19,1.238 -1.5,0 6.771,-12.143 11.271,-25.143 13.5,-39 6.253,-36.633 -5.913,-65.133 -36.5,-85.5 12.008,-42.453 5.175,-81.619 -20.5,-117.5 -11.789,-16.786 -26.956,-29.62 -45.5,-38.5 -40.389,-14.529 -74.556,-5.696 -102.5,26.5 -28.331,43.224 -32.164,88.558 -11.5,136 -7.5,-6.665 -15.167,-13.165 -23,-19.5 -12.322,-8.832 -25.655,-10.832 -40,-6 -11.641,5.982 -21.808,13.815 -30.5,23.5 1.169,-4.696 2.669,-9.363 4.5,-14 8.166,-27.356 8,-54.689 -0.5,-82 -7.429,-25.723 -22.262,-45.889 -44.5,-60.5 -32.692,-16.763 -64.358,-15.097 -95,5 -46.287,38.434 -62.62,87.101 -49,146 -14.856,10.541 -25.69,24.374 -32.5,41.5 -7.22,32.296 -2.053,62.296 15.5,90 -0.829,0.832 -1.662,0.499 -2.5,-1 -3.246,-6.565 -7.246,-12.565 -12,-18 -4.72,-9.439 -9.053,-18.106 -13,-26 -0.438,-2.876 -1.438,-5.543 -3,-8 -1.136,-9.514 -2.97,-18.847 -5.5,-28 -0.166,-5.011 0.001,-10.011 0.5,-15 5.692,-31.458 12.025,-62.791 19,-94 1.903,-8.306 4.403,-16.306 7.5,-24 4.85,-11.1 10.016,-22.767 15.5,-35 48.658,-73.304 116.158,-118.804 202.5,-136.5 17.114,-24.401 39.448,-42.401 67,-54 3.557,-1.408 7.224,-2.408 11,-3 0.906,-1.699 1.239,-3.533 1,-5.5 z"
       id="path89" />
  </g>
  <g
     id="g90"
     transform="matrix(0.12079142,0,0,0.12079142,-9.3798609,-23.856268)">
    <path
       style="opacity:1"
       fill="#4a5462"
       d="m 586.5,272.5 c 33.237,5.799 63.904,17.966 92,36.5 53.296,38.388 86.629,89.888 100,154.5 -4.921,-11.069 -10.088,-22.736 -15.5,-35 -10.812,-24.313 -24.146,-46.979 -40,-68 -37.344,-43.024 -82.844,-72.357 -136.5,-88 z"
       id="path90" />
  </g>
  <g
     id="g91"
     transform="matrix(0.12079142,0,0,0.12079142,-9.3798609,-23.856268)">
    <path
       style="opacity:1"
       fill="#4a5462"
       d="m 554.5,206.5 c 0.239,1.967 -0.094,3.801 -1,5.5 -3.776,0.592 -7.443,1.592 -11,3 -27.552,11.599 -49.886,29.599 -67,54 -86.342,17.696 -153.842,63.196 -202.5,136.5 -5.484,12.233 -10.65,23.9 -15.5,35 4.374,-14.087 9.874,-27.753 16.5,-41 44.569,-77.51 111.402,-122.01 200.5,-133.5 2.85,-6.867 6.35,-13.367 10.5,-19.5 17.667,-21.846 40.334,-35.846 68,-42 0.717,0.544 1.217,1.211 1.5,2 z"
       id="path91" />
  </g>
  <g
     id="g92"
     transform="matrix(0.12079142,0,0,0.12079142,-9.3798609,-23.856268)">
    <path
       style="opacity:1"
       fill="#4b5463"
       d="m 601.5,239.5 c -3.339,0.39 -6.673,0.89 -10,1.5 -16.852,6.089 -33.519,12.755 -50,20 -2.141,1.308 -4.141,2.808 -6,4.5 -1.667,-0.667 -3.333,-1.333 -5,-2 -2.236,1.982 -4.569,2.648 -7,2 12.657,-7.33 25.657,-14.164 39,-20.5 12.896,-5.245 26.23,-8.745 40,-10.5 -0.129,1.716 -0.462,3.383 -1,5 z"
       id="path92" />
  </g>
  <g
     id="g93"
     transform="matrix(0.12079142,0,0,0.12079142,-9.3798609,-23.856268)">
    <path
       style="opacity:1"
       fill="#212c37"
       d="m 90.5,740.5 c 0.3333,0 0.6667,0 1,0 0.3283,3.006 0.8283,6.34 1.5,10 4.2271,9.12 7.894,18.453 11,28 11.574,19.576 25.74,37.076 42.5,52.5 9.174,6.423 18.84,12.09 29,17 18.605,4.571 36.605,2.904 54,-5 9.862,-7.363 18.529,-15.863 26,-25.5 -3.26,8.761 -6.76,17.428 -10.5,26 -1.252,1.501 -2.252,3.168 -3,5 -0.718,-0.951 -1.551,-1.117 -2.5,-0.5 1.896,1.808 2.396,3.975 1.5,6.5 -4.777,12.544 -9.944,25.044 -15.5,37.5 -30.173,2.272 -57.173,-5.728 -81,-24 -35.027,-28.89 -54.0269,-66.057 -57,-111.5 -0.464,-5.748 0.536,-11.081 3,-16 z"
       id="path93" />
  </g>
  <g
     id="g94"
     transform="matrix(0.12079142,0,0,0.12079142,-9.3798609,-23.856268)">
    <path
       style="opacity:1"
       fill="#495361"
       d="m 777.5,747.5 c 3.964,3.463 7.798,7.13 11.5,11 48.313,57.281 82.479,122.281 102.5,195 -17.733,-42.151 -37.9,-83.818 -60.5,-125 -16.903,-27.713 -34.737,-54.713 -53.5,-81 z"
       id="path94" />
  </g>
  <g
     id="g95"
     transform="matrix(0.12079142,0,0,0.12079142,-9.3798609,-23.856268)">
    <path
       style="opacity:1"
       fill="#2c3845"
       d="m 253.5,743.5 c 1.085,-2.087 2.751,-3.42 5,-4 30,0 60,0 90,0 -9.734,12.458 -19.234,25.125 -28.5,38 -37.663,61.026 -59.663,127.359 -66,199 -4.02,37.24 -1.187,73.91 8.5,110 -15.963,-22.61 -27.129,-47.61 -33.5,-75 -2.495,-17.403 -3.995,-34.736 -4.5,-52 0.472,-9.746 1.639,-19.413 3.5,-29 6.533,-23.798 13.533,-47.465 21,-71 11.129,-28.44 21.296,-57.273 30.5,-86.5 -0.167,-0.5 -0.333,-1 -0.5,-1.5 -8.628,14.923 -16.461,30.256 -23.5,46 -7.471,9.637 -16.138,18.137 -26,25.5 -17.395,7.904 -35.395,9.571 -54,5 -10.16,-4.91 -19.826,-10.577 -29,-17 -16.76,-15.424 -30.926,-32.924 -42.5,-52.5 -3.106,-9.547 -6.7729,-18.88 -11,-28 -0.6717,-3.66 -1.1717,-6.994 -1.5,-10 4.6524,-4.252 9.986,-5.086 16,-2.5 11.87,8.102 24.204,15.436 37,22 17.953,9.057 36.953,12.724 57,11 3.159,-0.011 5.993,-0.845 8.5,-2.5 3,0 6,0 9,0 2.175,-0.755 4.341,-1.588 6.5,-2.5 -0.333,-0.333 -0.667,-0.667 -1,-1 1.73,-1.852 2.896,-1.686 3.5,0.5 1.413,-1.914 3.247,-3.247 5.5,-4 1.714,1.109 2.381,0.442 2,-2 4.356,-1.011 8.356,-2.844 12,-5.5 1.196,-0.654 1.196,-1.154 0,-1.5 -0.951,0.826 -1.951,0.992 -3,0.5 2.598,-3.614 5.598,-6.781 9,-9.5 z"
       id="path95" />
  </g>
  <g
     id="g96"
     transform="matrix(0.12079142,0,0,0.12079142,-9.3798609,-23.856268)">
    <path
       style="opacity:1"
       fill="#2c3845"
       d="m 769.5,738.5 c 3.374,2.374 6.041,5.374 8,9 18.763,26.287 36.597,53.287 53.5,81 22.6,41.182 42.767,82.849 60.5,125 1.403,3.409 2.07,7.075 2,11 1.997,7.089 -0.503,11.089 -7.5,12 -3.634,-0.767 -7.134,-1.934 -10.5,-3.5 -5.113,-4.958 -10.28,-9.792 -15.5,-14.5 -11.062,-13.129 -21.396,-26.795 -31,-41 -14.492,-22.284 -28.659,-44.618 -42.5,-67 -10.573,-25.132 -22.406,-49.798 -35.5,-74 -0.654,-1.196 -1.154,-1.196 -1.5,0 12.796,36.221 25.296,72.555 37.5,109 7.017,22.884 11.851,46.217 14.5,70 2.831,38.373 -4.002,74.71 -20.5,109 -5.639,9.45 -11.806,18.45 -18.5,27 4.233,-13.32 7.4,-26.98 9.5,-41 5.456,-60.38 -1.21,-119.38 -20,-177 -14.78,-48.9 -37.947,-93.234 -69.5,-133 28.872,-0.682 57.872,-1.349 87,-2 z"
       id="path96" />
  </g>
  <g
     id="g97"
     transform="matrix(0.12079142,0,0,0.12079142,-9.3798609,-23.856268)">
    <path
       style="opacity:1"
       fill="#212c37"
       d="m 786.5,850.5 c 13.841,22.382 28.008,44.716 42.5,67 9.604,14.205 19.938,27.871 31,41 5.22,4.708 10.387,9.542 15.5,14.5 3.366,1.566 6.866,2.733 10.5,3.5 6.997,-0.911 9.497,-4.911 7.5,-12 1.155,6.821 1.321,13.821 0.5,21 -0.667,1.333 -1.333,2.667 -2,4 -8.205,5.508 -16.705,6.008 -25.5,1.5 -22.717,-13.05 -41.217,-30.55 -55.5,-52.5 -6.857,-29.834 -15.024,-59.167 -24.5,-88 z"
       id="path97" />
  </g>
  <g
     id="g98"
     transform="matrix(0.12079142,0,0,0.12079142,-9.3798609,-23.856268)">
    <path
       style="opacity:1"
       fill="#06080d"
       d="m 260.5,982.5 c -1.313,19 -1.313,38 0,57 0.157,1.37 -0.01,2.71 -0.5,4 -1.003,-10.14 -1.503,-20.31 -1.5,-30.5 -0.182,-10.95 0.484,-21.114 2,-30.5 z"
       id="path98" />
  </g>
  <g
     id="g99"
     transform="matrix(0.12079142,0,0,0.12079142,-9.3798609,-23.856268)">
    <path
       style="opacity:1"
       fill="#f6f2ee"
       d="m 469.5,488.5 c -1.985,18.121 -7.485,35.121 -16.5,51 -10.3,8.067 -21.8,13.9 -34.5,17.5 -3.774,1.302 -6.941,3.469 -9.5,6.5 -0.045,3.75 1.455,6.916 4.5,9.5 5.283,3.372 10.949,5.872 17,7.5 -1.323,1.108 -2.823,1.108 -4.5,0 -1.257,0.35 -1.591,1.017 -1,2 16.095,18.758 31.428,38.091 46,58 8.466,9.637 18.3,17.471 29.5,23.5 11.425,3.909 22.425,2.909 33,-3 5.333,-4 10.667,-8 16,-12 16.5,-20.5 33,-41 49.5,-61.5 2.029,-2.529 3.862,-5.196 5.5,-8 -0.363,-0.683 -0.696,-1.35 -1,-2 4.222,-1.694 8.055,-4.028 11.5,-7 2.364,-3.974 1.864,-7.474 -1.5,-10.5 -12.3,-4.568 -24.133,-10.068 -35.5,-16.5 -8.445,-12.16 -14.278,-25.493 -17.5,-40 -7.859,-33.441 -3.359,-65.108 13.5,-95 9.846,-15.85 23.346,-27.35 40.5,-34.5 28.512,-9.137 54.512,-4.471 78,14 42.165,37.497 55.831,83.497 41,138 0.259,1.261 0.926,2.261 2,3 12.598,7.931 22.432,18.431 29.5,31.5 10.764,31.561 7.931,61.894 -8.5,91 -0.543,-0.06 -0.876,-0.393 -1,-1 2.119,-3.55 3.619,-7.217 4.5,-11 -18.735,26.766 -42.568,47.599 -71.5,62.5 -34.314,16.437 -70.314,27.437 -108,33 1.587,0.862 3.254,1.529 5,2 28.187,4.125 56.52,5.458 85,4 -3,-3 -6,-6 -9,-9 0.228,-0.399 0.562,-0.565 1,-0.5 3.964,3.463 7.798,7.13 11.5,11 15.318,18.624 28.651,38.624 40,60 37.359,72.458 54.692,149.458 52,231 -1.579,25.56 -7.746,49.89 -18.5,73 -0.664,-1.15 -0.831,-2.48 -0.5,-4 -28.054,32.47 -62.554,55.63 -103.5,69.5 -59.896,19.66 -121.229,25.66 -184,18 -42.44,-3.94 -82.44,-15.94 -120,-36 -25.222,-13.88 -46.055,-32.72 -62.5,-56.5 2.118,5.59 4.284,11.26 6.5,17 -2.726,-4.45 -5.226,-9.11 -7.5,-14 -7.861,-19.78 -13.028,-40.11 -15.5,-61 -1.313,-19 -1.313,-38 0,-57 6.894,-71.242 28.728,-137.576 65.5,-199 11.477,-17.98 24.977,-34.313 40.5,-49 0.438,-0.065 0.772,0.101 1,0.5 -1.667,1.667 -3.333,3.333 -5,5 24.366,2.166 48.699,1.833 73,-1 5.855,-1.212 11.522,-2.878 17,-5 -61.796,-4.805 -116.13,-27.138 -163,-67 -9.365,-9.179 -17.698,-19.012 -25,-29.5 -4.343,-9.536 -7.177,-19.536 -8.5,-30 -5.306,-34.705 6.694,-61.371 36,-80 -14.625,-53.793 -1.792,-99.959 38.5,-138.5 32.696,-25.786 66.363,-27.119 101,-4 29.949,28.003 42.616,62.503 38,103.5 z"
       id="path99" />
  </g>
  <g
     id="g100"
     transform="matrix(0.12079142,0,0,0.12079142,-9.3798609,-23.856268)">
    <path
       style="opacity:1"
       fill="#00254c"
       d="m 498.5,790.5 c 68.254,-3.625 120.754,23.042 157.5,80 28.763,54.447 28.43,108.78 -1,163 -27.784,44.83 -67.951,71 -120.5,78.5 -69.509,5.99 -123.009,-20.17 -160.5,-78.5 -28.759,-52.818 -29.759,-106.151 -3,-160 28.881,-48.371 71.381,-76.037 127.5,-83 z"
       id="path100" />
  </g>
  <g
     id="g101"
     transform="matrix(0.12079142,0,0,0.12079142,-9.3798609,-23.856268)">
    <path
       style="opacity:1"
       fill="#fcfdfd"
       d="m 513.5,816.5 c 0.876,-0.131 1.543,0.202 2,1 37.465,71.292 75.132,142.458 113,213.5 -41.539,-14.35 -79.539,-7.85 -114,19.5 -29.189,-23.71 -62.189,-31.55 -99,-23.5 -4.758,1.25 -9.258,3.08 -13.5,5.5 36.851,-72.033 74.018,-144.033 111.5,-216 z"
       id="path101" />
  </g>
  <g
     id="g102"
     transform="matrix(0.12079142,0,0,0.12079142,-9.3798609,-23.856268)">
    <path
       style="opacity:1"
       fill="#02244b"
       d="m 513.5,890.5 c 15.493,31.152 31.16,62.319 47,93.5 -16.125,4.23 -31.458,10.397 -46,18.5 -14.527,-8.095 -29.861,-14.261 -46,-18.5 15.14,-31.112 30.14,-62.279 45,-93.5 z"
       id="path102" />
  </g>
  <g
     id="g103"
     transform="matrix(0.12079142,0,0,0.12079142,-9.3798609,-23.856268)">
    <path
       style="opacity:1"
       fill="#d5cfca"
       d="m 603.5,577.5 c 0.304,0.65 0.637,1.317 1,2 -1.638,2.804 -3.471,5.471 -5.5,8 -16.5,20.5 -33,41 -49.5,61.5 -5.333,4 -10.667,8 -16,12 -10.575,5.909 -21.575,6.909 -33,3 -11.2,-6.029 -21.034,-13.863 -29.5,-23.5 -14.572,-19.909 -29.905,-39.242 -46,-58 -0.591,-0.983 -0.257,-1.65 1,-2 1.677,1.108 3.177,1.108 4.5,0 3.567,2.057 6.734,4.723 9.5,8 13.737,18.405 28.904,35.572 45.5,51.5 15.465,13.343 32.132,15.009 50,5 9.753,-6.417 18.253,-14.251 25.5,-23.5 10.971,-15.387 23.471,-29.553 37.5,-42.5 1.654,-0.608 3.321,-1.108 5,-1.5 z"
       id="path103" />
  </g>
  <g
     id="g104"
     transform="matrix(0.12079142,0,0,0.12079142,-9.3798609,-23.856268)">
    <path
       style="opacity:1"
       fill="#141f2c"
       d="m 469.5,488.5 c 1.205,3.178 1.205,6.512 0,10 0.376,1.883 1.376,3.383 3,4.5 -1.036,1.617 -2.203,1.784 -3.5,0.5 -1.452,2.398 -1.119,4.731 1,7 1.666,-0.84 1.833,-0.34 0.5,1.5 0.566,0.995 1.233,1.828 2,2.5 -1.831,4.637 -3.331,9.304 -4.5,14 8.692,-9.685 18.859,-17.518 30.5,-23.5 14.345,-4.832 27.678,-2.832 40,6 7.833,6.335 15.5,12.835 23,19.5 1.312,1.979 2.979,3.645 5,5 0.333,-1.333 0.667,-2.667 1,-4 -2.856,-8.569 -5.522,-17.236 -8,-26 0.043,-0.916 0.376,-1.583 1,-2 3.222,14.507 9.055,27.84 17.5,40 11.367,6.432 23.2,11.932 35.5,16.5 3.364,3.026 3.864,6.526 1.5,10.5 -3.445,2.972 -7.278,5.306 -11.5,7 -1.679,0.392 -3.346,0.892 -5,1.5 -14.029,12.947 -26.529,27.113 -37.5,42.5 -7.247,9.249 -15.747,17.083 -25.5,23.5 -17.868,10.009 -34.535,8.343 -50,-5 -16.596,-15.928 -31.763,-33.095 -45.5,-51.5 -2.766,-3.277 -5.933,-5.943 -9.5,-8 -6.051,-1.628 -11.717,-4.128 -17,-7.5 -3.045,-2.584 -4.545,-5.75 -4.5,-9.5 2.559,-3.031 5.726,-5.198 9.5,-6.5 12.7,-3.6 24.2,-9.433 34.5,-17.5 9.015,-15.879 14.515,-32.879 16.5,-51 z"
       id="path104" />
  </g>
  <g
     id="g105"
     transform="matrix(0.12079142,0,0,0.12079142,-9.3798609,-23.856268)">
    <path
       style="opacity:1"
       fill="#d56925"
       d="m 446.5,583.5 c 3.536,1.258 7.203,2.091 11,2.5 12.309,12.641 24.976,24.975 38,37 5.405,3.857 11.405,6.024 18,6.5 3.911,0.203 7.578,-0.63 11,-2.5 3.333,-2 6.667,-4 10,-6 12.664,-11.664 24.998,-23.664 37,-36 3.322,-1.392 6.655,-1.559 10,-0.5 -10.394,11.774 -20.561,23.774 -30.5,36 -7.735,8.42 -16.568,15.253 -26.5,20.5 -3.456,1.041 -6.956,1.875 -10.5,2.5 -11.287,-2.394 -21.12,-7.56 -29.5,-15.5 -13.583,-14.08 -26.249,-28.914 -38,-44.5 z"
       id="path105" />
  </g>
  <g
     id="g106"
     transform="matrix(0.12079142,0,0,0.12079142,-9.3798609,-23.856268)">
    <path
       style="opacity:1"
       fill="#84413f"
       d="m 536.5,610.5 c -5.147,4.303 -10.48,8.47 -16,12.5 -11.74,1.961 -21.074,-1.872 -28,-11.5 -0.086,-0.996 0.248,-1.829 1,-2.5 6.69,-0.635 13.19,0.198 19.5,2.5 3.384,-0.572 6.551,-1.739 9.5,-3.5 4.333,-0.667 8.667,-0.667 13,0 0.752,0.671 1.086,1.504 1,2.5 z"
       id="path106" />
  </g>
  <g
     id="g107"
     transform="matrix(0.12079142,0,0,0.12079142,-9.3798609,-23.856268)">
    <path
       style="opacity:1"
       fill="#613031"
       d="m 536.5,610.5 c 0.086,-0.996 -0.248,-1.829 -1,-2.5 -4.333,-0.667 -8.667,-0.667 -13,0 -2.949,1.761 -6.116,2.928 -9.5,3.5 -6.31,-2.302 -12.81,-3.135 -19.5,-2.5 -0.752,0.671 -1.086,1.504 -1,2.5 -1.879,-1.397 -3.546,-3.063 -5,-5 8.835,-6.998 17.335,-6.664 25.5,1 4.926,-3.721 10.426,-5.554 16.5,-5.5 3.667,1.154 7.001,2.987 10,5.5 -0.688,1.355 -1.688,2.355 -3,3 z"
       id="path107" />
  </g>
  <g
     id="g108"
     transform="matrix(0.12079142,0,0,0.12079142,-9.3798609,-23.856268)">
    <path
       style="opacity:1"
       fill="#d6945d"
       d="m 458.5,578.5 c 9.449,0.523 18.116,3.189 26,8 -8.706,-2.905 -17.373,-5.571 -26,-8 z"
       id="path108" />
  </g>
  <g
     id="g109"
     transform="matrix(0.12079142,0,0,0.12079142,-9.3798609,-23.856268)">
    <path
       style="opacity:1"
       fill="#f38b3a"
       d="m 601.5,563.5 c 1.7,0.516 3.033,1.516 4,3 -1.424,2.218 -3.424,3.718 -6,4.5 -17.278,3.09 -34.278,7.423 -51,13 -11.619,4.699 -22.952,9.866 -34,15.5 -10.226,-3.959 -20.226,-8.292 -30,-13 -7.884,-4.811 -16.551,-7.477 -26,-8 -11.541,-1.527 -22.874,-4.027 -34,-7.5 -3.049,-1.129 -4.382,-2.962 -4,-5.5 13.163,-0.664 25.497,-4.164 37,-10.5 5.172,-3.085 10.172,-6.419 15,-10 7.678,-7.344 15.678,-14.344 24,-21 9.576,-6.52 19.576,-7.186 30,-2 10.626,8.29 20.959,16.957 31,26 12.557,10.13 26.89,15.63 43,16.5 0.607,-0.124 0.94,-0.457 1,-1 z"
       id="path109" />
  </g>
  <g
     id="g110"
     transform="matrix(0.12079142,0,0,0.12079142,-9.3798609,-23.856268)">
    <path
       style="opacity:1"
       fill="#ecab93"
       d="m 315.5,544.5 c 13.096,-1.06 25.429,1.44 37,7.5 8.814,4.96 11.814,12.294 9,22 -5.526,8.178 -13.193,13.178 -23,15 -16.262,3.879 -31.262,1.212 -45,-8 -10.864,-12.726 -8.864,-23.059 6,-31 5.215,-2.571 10.548,-4.404 16,-5.5 z"
       id="path110" />
  </g>
  <g
     id="g111"
     transform="matrix(0.12079142,0,0,0.12079142,-9.3798609,-23.856268)">
    <path
       style="opacity:1"
       fill="#ecab93"
       d="m 690.5,543.5 c 14.877,-1.87 28.544,1.296 41,9.5 10.865,10.398 10.532,20.398 -1,30 -16.069,8.201 -32.735,9.534 -50,4 -15.039,-6.555 -18.872,-17.055 -11.5,-31.5 5.996,-6.245 13.163,-10.245 21.5,-12 z"
       id="path111" />
  </g>
  <g
     id="g112"
     transform="matrix(0.12079142,0,0,0.12079142,-9.3798609,-23.856268)">
    <path
       style="opacity:1"
       fill="#fac67c"
       d="m 601.5,563.5 c -0.06,0.543 -0.393,0.876 -1,1 -16.11,-0.87 -30.443,-6.37 -43,-16.5 -10.041,-9.043 -20.374,-17.71 -31,-26 -10.424,-5.186 -20.424,-4.52 -30,2 -8.322,6.656 -16.322,13.656 -24,21 -4.828,3.581 -9.828,6.915 -15,10 -11.503,6.336 -23.837,9.836 -37,10.5 11.181,-4.588 22.181,-9.755 33,-15.5 14.817,-12.24 29.817,-24.24 45,-36 11.328,-5.134 22.328,-4.467 33,2 11.627,9.292 22.961,18.959 34,29 11.135,7.773 23.135,13.94 36,18.5 z"
       id="path112" />
  </g>
  <g
     id="g113"
     transform="matrix(0.12079142,0,0,0.12079142,-9.3798609,-23.856268)">
    <path
       style="opacity:1"
       fill="#1d1f28"
       d="m 489.5,539.5 c 1.265,1.014 1.931,2.514 2,4.5 0.538,3.418 -0.628,5.918 -3.5,7.5 -1.885,-0.362 -2.719,-1.529 -2.5,-3.5 0.674,-3.18 2.008,-6.014 4,-8.5 z"
       id="path113" />
  </g>
  <g
     id="g114"
     transform="matrix(0.12079142,0,0,0.12079142,-9.3798609,-23.856268)">
    <path
       style="opacity:1"
       fill="#181b28"
       d="m 535.5,539.5 c 4.954,2.41 6.954,6.41 6,12 -1.478,0.262 -2.811,-0.071 -4,-1 -1.724,-3.45 -2.391,-7.117 -2,-11 z"
       id="path114" />
  </g>
  <g
     id="g115"
     transform="matrix(0.12079142,0,0,0.12079142,-9.3798609,-23.856268)">
    <path
       style="opacity:1"
       fill="#286a9f"
       d="m 603.5,478.5 c -7.526,11.256 -8.86,23.256 -4,36 -0.592,2.627 -0.925,5.294 -1,8 -1.304,-1.487 -2.47,-3.154 -3.5,-5 -2.252,-8.18 -3.419,-16.514 -3.5,-25 0,-0.667 0,-1.333 0,-2 3.282,-4.785 7.116,-9.118 11.5,-13 0.399,0.228 0.565,0.562 0.5,1 z"
       id="path115" />
  </g>
  <g
     id="g116"
     transform="matrix(0.12079142,0,0,0.12079142,-9.3798609,-23.856268)">
    <path
       style="opacity:1"
       fill="#0c2e56"
       d="m 358.5,493.5 c 0.826,4.816 1.326,9.816 1.5,15 0.333,-4.333 0.667,-8.667 1,-13 0.69,-1.238 1.19,-1.238 1.5,0 -1.48,6.54 -1.146,12.873 1,19 7.589,20.63 22.255,29.13 44,25.5 12.517,-5.684 20.517,-15.184 24,-28.5 1.424,-2.015 2.09,-4.348 2,-7 0.667,2.333 1.333,4.667 2,7 -9.257,29.962 -28.59,39.628 -58,29 -15.342,-11.726 -21.676,-27.393 -19,-47 z"
       id="path116" />
  </g>
  <g
     id="g117"
     transform="matrix(0.12079142,0,0,0.12079142,-9.3798609,-23.856268)">
    <path
       style="opacity:1"
       fill="#348dcc"
       d="m 431.5,511.5 c -3.483,13.316 -11.483,22.816 -24,28.5 -21.745,3.63 -36.411,-4.87 -44,-25.5 4,-1 8,-2 12,-3 7.874,17.934 20.874,23.101 39,15.5 5.001,-3.832 8.667,-8.666 11,-14.5 2.266,0.359 4.099,-0.308 5.5,-2 0.399,0.228 0.565,0.562 0.5,1 z"
       id="path117" />
  </g>
  <g
     id="g118"
     transform="matrix(0.12079142,0,0,0.12079142,-9.3798609,-23.856268)">
    <path
       style="opacity:1"
       fill="#22679c"
       d="m 660.5,518.5 c 0.086,-0.996 -0.248,-1.829 -1,-2.5 -3.524,-1.265 -6.857,-2.765 -10,-4.5 1.875,-5.501 2.375,-11.168 1.5,-17 -2.415,-5.812 -3.915,-11.812 -4.5,-18 0.06,-0.543 0.393,-0.876 1,-1 16.292,10.865 20.625,25.198 13,43 z"
       id="path118" />
  </g>
  <g
     id="g119"
     transform="matrix(0.12079142,0,0,0.12079142,-9.3798609,-23.856268)">
    <path
       style="opacity:1"
       fill="#256da3"
       d="m 434.5,493.5 c 0.177,3.734 -0.156,7.401 -1,11 0.09,2.652 -0.576,4.985 -2,7 0.065,-0.438 -0.101,-0.772 -0.5,-1 -1.401,1.692 -3.234,2.359 -5.5,2 2.247,-7.547 2.581,-15.214 1,-23 -0.164,-2.687 0.003,-5.354 0.5,-8 2.759,3.907 5.259,7.907 7.5,12 z"
       id="path119" />
  </g>
  <g
     id="g120"
     transform="matrix(0.12079142,0,0,0.12079142,-9.3798609,-23.856268)">
    <path
       style="opacity:1"
       fill="#27699e"
       d="m 396.5,467.5 c -10.788,2.616 -17.954,9.283 -21.5,20 -2.116,8.076 -1.949,16.076 0.5,24 -4,1 -8,2 -12,3 -2.146,-6.127 -2.48,-12.46 -1,-19 4.924,-15.921 15.59,-25.587 32,-29 0.916,0.043 1.583,0.376 2,1 z"
       id="path120" />
  </g>
  <g
     id="g121"
     transform="matrix(0.12079142,0,0,0.12079142,-9.3798609,-23.856268)">
    <path
       style="opacity:1"
       fill="#081523"
       d="m 646.5,476.5 c 0.585,6.188 2.085,12.188 4.5,18 0.875,5.832 0.375,11.499 -1.5,17 -7.827,18.439 -20.827,23.605 -39,15.5 -4.276,-3.767 -7.943,-7.934 -11,-12.5 -4.86,-12.744 -3.526,-24.744 4,-36 10.495,-12.983 23.161,-15.483 38,-7.5 1.902,1.73 3.569,3.563 5,5.5 z"
       id="path121" />
  </g>
  <g
     id="g122"
     transform="matrix(0.12079142,0,0,0.12079142,-9.3798609,-23.856268)">
    <path
       style="opacity:1"
       fill="#081422"
       d="m 396.5,467.5 c 7.472,-0.438 14.472,0.895 21,4 -12.97,-0.715 -17.136,4.952 -12.5,17 3.87,5.063 8.704,6.23 14.5,3.5 4.685,-3.93 6.018,-8.763 4,-14.5 0.617,0.111 1.117,0.444 1.5,1 0.177,3.856 0.677,7.523 1.5,11 1.581,7.786 1.247,15.453 -1,23 -2.333,5.834 -5.999,10.668 -11,14.5 -18.126,7.601 -31.126,2.434 -39,-15.5 -2.449,-7.924 -2.616,-15.924 -0.5,-24 3.546,-10.717 10.712,-17.384 21.5,-20 z"
       id="path122" />
  </g>
  <g
     id="g123"
     transform="matrix(0.12079142,0,0,0.12079142,-9.3798609,-23.856268)">
    <path
       style="opacity:1"
       fill="#073662"
       d="m 641.5,543.5 c -22.234,5.133 -38.401,-2.534 -48.5,-23 -0.813,-1.936 -1.313,-3.936 -1.5,-6 -0.235,-4.077 -0.902,-8.077 -2,-12 0.597,-3.471 1.264,-6.805 2,-10 0.081,8.486 1.248,16.82 3.5,25 1.03,1.846 2.196,3.513 3.5,5 12.244,19.645 28.577,23.812 49,12.5 5.716,-4.533 10.049,-10.033 13,-16.5 7.625,-17.802 3.292,-32.135 -13,-43 -0.607,0.124 -0.94,0.457 -1,1 -1.431,-1.937 -3.098,-3.77 -5,-5.5 -14.839,-7.983 -27.505,-5.483 -38,7.5 0.065,-0.438 -0.101,-0.772 -0.5,-1 -4.384,3.882 -8.218,8.215 -11.5,13 -0.966,-7.74 0.701,-14.74 5,-21 5.977,-6.989 13.31,-11.989 22,-15 24.399,-2.879 40.233,7.454 47.5,31 7.236,26.185 -0.93,45.519 -24.5,58 z"
       id="path123" />
  </g>
  <g
     id="g124"
     transform="matrix(0.12079142,0,0,0.12079142,-9.3798609,-23.856268)">
    <path
       style="opacity:1"
       fill="#308dcc"
       d="m 649.5,511.5 c 3.143,1.735 6.476,3.235 10,4.5 0.752,0.671 1.086,1.504 1,2.5 -2.951,6.467 -7.284,11.967 -13,16.5 -20.423,11.312 -36.756,7.145 -49,-12.5 0.075,-2.706 0.408,-5.373 1,-8 3.057,4.566 6.724,8.733 11,12.5 18.173,8.105 31.173,2.939 39,-15.5 z"
       id="path124" />
  </g>
  <g
     id="g125"
     transform="matrix(0.12079142,0,0,0.12079142,-9.3798609,-23.856268)">
    <path
       style="opacity:1"
       fill="#fafbfb"
       d="m 676.5,468.5 c 8.835,17.337 10.335,35.337 4.5,54 -3.683,9.082 -9.849,15.749 -18.5,20 -3.711,0.792 -7.378,1.792 -11,3 -1.501,-1.252 -3.168,-2.252 -5,-3 -0.169,0.897 -0.502,1.897 -1,3 -0.667,-0.333 -1.333,-0.667 -2,-1 0.011,0.941 -0.489,1.608 -1.5,2 -0.5,-0.167 -1,-0.333 -1.5,-0.5 0.752,-0.671 1.086,-1.504 1,-2.5 23.57,-12.481 31.736,-31.815 24.5,-58 -7.267,-23.546 -23.101,-33.879 -47.5,-31 -2.442,0.146 -3.109,-0.687 -2,-2.5 24.398,-10.758 43.898,-4.924 58.5,17.5 0.383,-0.556 0.883,-0.889 1.5,-1 z"
       id="path125" />
  </g>
  <g
     id="g126"
     transform="matrix(0.12079142,0,0,0.12079142,-9.3798609,-23.856268)">
    <path
       style="opacity:1"
       fill="#fafbfb"
       d="m 414.5,457.5 c -24.032,-8.376 -41.532,-1.042 -52.5,22 -1.74,4.535 -2.906,9.202 -3.5,14 -2.676,19.607 3.658,35.274 19,47 -1.548,0.321 -2.215,1.321 -2,3 -2.927,0.638 -8.927,-0.695 -18,-4 -8.781,-7.552 -13.947,-17.218 -15.5,-29 -1.707,-12.228 -0.207,-23.895 4.5,-35 6.875,-12.367 16.875,-21.534 30,-27.5 12.764,-3.208 24.764,-1.542 36,5 1.187,1.019 2.187,2.186 3,3.5 -0.124,0.607 -0.457,0.94 -1,1 z"
       id="path126" />
  </g>
  <g
     id="g127"
     transform="matrix(0.12079142,0,0,0.12079142,-9.3798609,-23.856268)">
    <path
       style="opacity:1"
       fill="#141f2c"
       d="m 435.5,511.5 c -0.667,-2.333 -1.333,-4.667 -2,-7 0.844,-3.599 1.177,-7.266 1,-11 -0.17,-5.359 -0.67,-10.692 -1.5,-16 -0.765,-3.483 -2.265,-6.483 -4.5,-9 -8.894,-22.953 -25.561,-32.119 -50,-27.5 -15.711,6.876 -26.378,18.376 -32,34.5 -4.707,11.105 -6.207,22.772 -4.5,35 1.553,11.782 6.719,21.448 15.5,29 -15.536,-4.383 -23.37,-14.716 -23.5,-31 -2.582,-27.595 6.251,-50.762 26.5,-69.5 19.307,-12.663 38.64,-12.663 58,0 16.459,16.044 22.959,35.544 19.5,58.5 -0.346,4.775 -1.179,9.442 -2.5,14 z"
       id="path127" />
  </g>
  <g
     id="g128"
     transform="matrix(0.12079142,0,0,0.12079142,-9.3798609,-23.856268)">
    <path
       style="opacity:1"
       fill="#053763"
       d="m 414.5,457.5 c 5.216,2.873 9.883,6.54 14,11 2.235,2.517 3.735,5.517 4.5,9 0.83,5.308 1.33,10.641 1.5,16 -2.241,-4.093 -4.741,-8.093 -7.5,-12 -0.497,2.646 -0.664,5.313 -0.5,8 -0.823,-3.477 -1.323,-7.144 -1.5,-11 -0.383,-0.556 -0.883,-0.889 -1.5,-1 -2,-2 -4,-4 -6,-6 -6.528,-3.105 -13.528,-4.438 -21,-4 -0.417,-0.624 -1.084,-0.957 -2,-1 -16.41,3.413 -27.076,13.079 -32,29 -0.31,-1.238 -0.81,-1.238 -1.5,0 -0.333,4.333 -0.667,8.667 -1,13 -0.174,-5.184 -0.674,-10.184 -1.5,-15 0.594,-4.798 1.76,-9.465 3.5,-14 10.968,-23.042 28.468,-30.376 52.5,-22 z"
       id="path128" />
  </g>
  <g
     id="g129"
     transform="matrix(0.12079142,0,0,0.12079142,-9.3798609,-23.856268)">
    <path
       style="opacity:1"
       fill="#f8f9f9"
       d="m 417.5,471.5 c 2,2 4,4 6,6 2.018,5.737 0.685,10.57 -4,14.5 -5.796,2.73 -10.63,1.563 -14.5,-3.5 -4.636,-12.048 -0.47,-17.715 12.5,-17 z"
       id="path129" />
  </g>
  <g
     id="g130"
     transform="matrix(0.12079142,0,0,0.12079142,-9.3798609,-23.856268)">
    <path
       style="opacity:1"
       fill="#d6d7e5"
       d="m 428.5,468.5 c -4.117,-4.46 -8.784,-8.127 -14,-11 0.543,-0.06 0.876,-0.393 1,-1 -0.813,-1.314 -1.813,-2.481 -3,-3.5 -11.236,-6.542 -23.236,-8.208 -36,-5 -13.125,5.966 -23.125,15.133 -30,27.5 5.622,-16.124 16.289,-27.624 32,-34.5 24.439,-4.619 41.106,4.547 50,27.5 z"
       id="path130" />
  </g>
  <g
     id="g131"
     transform="matrix(0.12079142,0,0,0.12079142,-9.3798609,-23.856268)">
    <path
       style="opacity:1"
       fill="#14202d"
       d="m 662.5,542.5 c 8.651,-4.251 14.817,-10.918 18.5,-20 5.835,-18.663 4.335,-36.663 -4.5,-54 -11.018,-23.009 -29.018,-31.842 -54,-26.5 -12.612,5.445 -21.279,14.612 -26,27.5 -4.299,6.26 -5.966,13.26 -5,21 0,0.667 0,1.333 0,2 -0.736,3.195 -1.403,6.529 -2,10 1.098,3.923 1.765,7.923 2,12 -8.571,-24.008 -5.737,-46.674 8.5,-68 18.917,-19.227 40.084,-22.06 63.5,-8.5 27.403,24.222 35.236,53.722 23.5,88.5 -6.192,8.191 -14.359,13.524 -24.5,16 z"
       id="path131" />
  </g>
  <g
     id="g132"
     transform="matrix(0.12079142,0,0,0.12079142,-9.3798609,-23.856268)">
    <path
       style="opacity:1"
       fill="#f9fafa"
       d="m 631.5,469.5 c 10.166,0.659 14.666,5.993 13.5,16 -4.005,7.002 -9.505,8.502 -16.5,4.5 -7.284,-8.127 -6.284,-14.96 3,-20.5 z"
       id="path132" />
  </g>
  <g
     id="g133"
     transform="matrix(0.12079142,0,0,0.12079142,-9.3798609,-23.856268)">
    <path
       style="opacity:1"
       fill="#d5d7e5"
       d="m 676.5,468.5 c -0.617,0.111 -1.117,0.444 -1.5,1 -14.602,-22.424 -34.102,-28.258 -58.5,-17.5 -1.109,1.813 -0.442,2.646 2,2.5 -8.69,3.011 -16.023,8.011 -22,15 4.721,-12.888 13.388,-22.055 26,-27.5 24.982,-5.342 42.982,3.491 54,26.5 z"
       id="path133" />
  </g>
  <g
     id="g134"
     transform="matrix(0.12079142,0,0,0.12079142,-9.3798609,-23.856268)">
    <path
       style="opacity:1"
       fill="#212c37"
       d="m 801.5,955.5 c 6.657,38.192 6.49,76.53 -0.5,115 -8.357,41.13 -27.857,75.8 -58.5,104 -15.517,14.94 -33.517,26.1 -54,33.5 -24.311,8.31 -49.311,13.14 -75,14.5 1.928,-1.97 4.261,-3.47 7,-4.5 27.475,-8.07 52.808,-20.4 76,-37 1.905,-1.82 3.572,-3.82 5,-6 2.442,-0.94 4.775,-2.11 7,-3.5 5.439,-5.86 11.105,-11.53 17,-17 5.615,-9.1 12.115,-17.44 19.5,-25 5.786,-13.2 11.619,-25.87 17.5,-38 6.694,-8.55 12.861,-17.55 18.5,-27 16.498,-34.29 23.331,-70.627 20.5,-109 z"
       id="path134" />
  </g>
  <g
     id="g135"
     transform="matrix(0.12079142,0,0,0.12079142,-9.3798609,-23.856268)">
    <path
       style="opacity:1"
       fill="#212c37"
       d="m 224.5,959.5 c 0.505,17.264 2.005,34.597 4.5,52 6.371,27.39 17.537,52.39 33.5,75 3.137,7.76 5.97,15.76 8.5,24 0.333,-0.67 0.667,-1.33 1,-2 3.969,6.29 7.469,12.79 10.5,19.5 1.613,0.09 2.78,-0.74 3.5,-2.5 -0.155,2.31 -0.155,4.64 0,7 3.484,5.43 7.151,10.77 11,16 2.475,2.99 5.308,5.33 8.5,7 0.061,-2.09 1.061,-3.59 3,-4.5 -2.29,-1.78 -3.957,-3.94 -5,-6.5 4,3.33 7.667,7 11,11 -1.871,-0.36 -3.371,-1.36 -4.5,-3 -0.903,1.2 -2.069,2.03 -3.5,2.5 2.528,1.02 2.528,2.18 0,3.5 10.608,10.45 21.942,19.95 34,28.5 10.707,6.4 21.374,12.73 32,19 8.621,2.75 16.621,5.91 24,9.5 0.586,-0.21 1.086,-0.54 1.5,-1 1.435,1.71 3.269,2.88 5.5,3.5 4.768,1.02 9.434,2.36 14,4 -41.972,-0.5 -80.638,-12.16 -116,-35 -43.453,-33.26 -69.286,-77.09 -77.5,-131.5 -1.526,-12.29 -2.36,-24.62 -2.5,-37 -0.167,-12.34 0,-24.671 0.5,-37 0.151,-7.464 0.984,-14.797 2.5,-22 z"
       id="path135" />
  </g>
  <g
     id="g136"
     transform="matrix(0.12079142,0,0,0.12079142,-9.3798609,-23.856268)">
    <path
       style="opacity:1"
       fill="#121f2d"
       d="m 209.5,987.5 c 0.831,12.493 1.331,25.16 1.5,38 1.011,0.84 2.178,1.17 3.5,1 0.214,-1.64 -0.12,-3.14 -1,-4.5 1.634,-0.49 3.301,-0.66 5,-0.5 0.17,-1.32 -0.163,-2.49 -1,-3.5 0.5,-0.5 1,-1 1.5,-1.5 0.417,1.26 1.25,1.92 2.5,2 0.14,12.38 0.974,24.71 2.5,37 8.214,54.41 34.047,98.24 77.5,131.5 35.362,22.84 74.028,34.5 116,35 -4.566,-1.64 -9.232,-2.98 -14,-4 -2.231,-0.62 -4.065,-1.79 -5.5,-3.5 -0.414,0.46 -0.914,0.79 -1.5,1 -7.379,-3.59 -15.379,-6.75 -24,-9.5 -10.626,-6.27 -21.293,-12.6 -32,-19 -12.058,-8.55 -23.392,-18.05 -34,-28.5 2.528,-1.32 2.528,-2.48 0,-3.5 1.431,-0.47 2.597,-1.3 3.5,-2.5 1.129,1.64 2.629,2.64 4.5,3 32.926,31.47 71.926,51.97 117,61.5 48.787,9.83 97.787,10.99 147,3.5 0.739,-0.13 1.406,0.04 2,0.5 -4.033,0.69 -8.033,1.53 -12,2.5 0.5,0.33 1,0.67 1.5,1 4.435,-1.32 8.935,-1.82 13.5,-1.5 0.667,1.33 1.333,2.67 2,4 -1.544,0.29 -2.877,0.96 -4,2 2.688,0.39 5.355,0.89 8,1.5 2.333,-0.33 2.667,-1.33 1,-3 1.946,-1.58 3.946,-2.08 6,-1.5 -1.134,-1.02 -0.801,-1.68 1,-2 5.516,-0.17 10.849,-0.67 16,-1.5 25.689,-1.36 50.689,-6.19 75,-14.5 20.483,-7.4 38.483,-18.56 54,-33.5 0.996,0.09 1.829,-0.25 2.5,-1 1.292,1.75 2.458,3.58 3.5,5.5 -0.949,0.62 -1.782,0.45 -2.5,-0.5 -0.5,1 -1,2 -1.5,3 2.77,2.53 2.604,4.86 -0.5,7 -3.757,-2.41 -4.257,-1.74 -1.5,2 -5.732,5.38 -12.065,10.04 -19,14 14.274,6.47 28.274,13.47 42,21 11.232,6.41 19.065,15.74 23.5,28 1.891,10.72 -2.276,17.89 -12.5,21.5 -8.443,2.48 -16.943,2.98 -25.5,1.5 0.473,13.85 -6.027,22.02 -19.5,24.5 -20.047,2.53 -38.547,-1.64 -55.5,-12.5 -4.324,13.29 -13.491,18.79 -27.5,16.5 -37.333,-11.49 -64.333,-34.99 -81,-70.5 -1.5,-0.33 -3,-0.67 -4.5,-1 -32.675,3.82 -65.342,3.82 -98,0 -1.5,0.33 -3,0.67 -4.5,1 -15.233,33.73 -40.233,56.9 -75,69.5 -8.865,2.94 -17.199,1.94 -25,-3 -3.307,-3.47 -5.974,-7.3 -8,-11.5 -20.542,12.15 -42.209,14.98 -65,8.5 -6.597,-5.61 -9.597,-12.78 -9,-21.5 -12.112,2.63 -23.446,0.8 -34,-5.5 -5.976,-6.56 -7.476,-14.06 -4.5,-22.5 3.761,-7.55 8.927,-13.88 15.5,-19 16.234,-9.28 32.901,-17.78 50,-25.5 -49.874,-32.26 -80.374,-77.76 -91.5,-136.5 -4.029,-26.51 -5.529,-53.18 -4.5,-80 z"
       id="path136" />
  </g>
  <g
     id="g137"
     transform="matrix(0.12079142,0,0,0.12079142,-9.3798609,-23.856268)">
    <path
       style="opacity:1"
       fill="#d4cdc9"
       d="m 747.5,1106.5 c -10.58,22.43 -25.247,41.93 -44,58.5 -36.561,29.81 -78.228,48.31 -125,55.5 -49.213,7.49 -98.213,6.33 -147,-3.5 -45.074,-9.53 -84.074,-30.03 -117,-61.5 -3.333,-4 -7,-7.67 -11,-11 -7.669,-9.34 -14.336,-19.34 -20,-30 -2.216,-5.74 -4.382,-11.41 -6.5,-17 16.445,23.78 37.278,42.62 62.5,56.5 37.56,20.06 77.56,32.06 120,36 62.771,7.66 124.104,1.66 184,-18 40.946,-13.87 75.446,-37.03 103.5,-69.5 -0.331,1.52 -0.164,2.85 0.5,4 z"
       id="path137" />
  </g>
  <g
     id="g138"
     transform="matrix(0.12079142,0,0,0.12079142,-9.3798609,-23.856268)">
    <path
       style="opacity:1"
       fill="#d26623"
       d="m 731.5,1220.5 c 1.813,2.63 4.479,5.13 8,7.5 5.174,3.03 10.174,6.2 15,9.5 -9.31,-4.38 -18.977,-7.88 -29,-10.5 -5,-0.67 -10,-0.67 -15,0 -29.606,10.65 -59.939,18.65 -91,24 -4.654,2.27 -7.154,5.77 -7.5,10.5 10.386,14.23 24.22,22.9 41.5,26 3.341,-0.34 6.675,-0.67 10,-1 -0.149,-1.05 0.017,-2.05 0.5,-3 0.495,1.97 0.662,3.97 0.5,6 -0.547,2.71 -2.213,4.21 -5,4.5 -13.473,0.21 -25.806,-3.45 -37,-11 -18.798,-12.62 -32.132,-29.45 -40,-50.5 17.302,0.31 34.635,-0.02 52,-1 6.351,-0.43 12.685,-1.1 19,-2 3.286,-0.54 6.286,-1.54 9,-3 15.227,-3.85 30.227,-8.52 45,-14 8.439,1.66 16.439,4.33 24,8 z"
       id="path138" />
  </g>
  <g
     id="g139"
     transform="matrix(0.12079142,0,0,0.12079142,-9.3798609,-23.856268)">
    <path
       style="opacity:1"
       fill="#f8ce86"
       d="m 731.5,1220.5 c 13.196,4.93 25.53,11.43 37,19.5 2.618,2.11 4.618,4.61 6,7.5 -6.625,-3.31 -13.291,-6.65 -20,-10 -4.826,-3.3 -9.826,-6.47 -15,-9.5 -3.521,-2.37 -6.187,-4.87 -8,-7.5 z"
       id="path139" />
  </g>
  <g
     id="g140"
     transform="matrix(0.12079142,0,0,0.12079142,-9.3798609,-23.856268)">
    <path
       style="opacity:1"
       fill="#ba6c40"
       d="m 662.5,1226.5 c -2.714,1.46 -5.714,2.46 -9,3 -6.315,0.9 -12.649,1.57 -19,2 9.156,-1.89 18.489,-3.56 28,-5 z"
       id="path140" />
  </g>
  <g
     id="g141"
     transform="matrix(0.12079142,0,0,0.12079142,-9.3798609,-23.856268)">
    <path
       style="opacity:1"
       fill="#f8cc85"
       d="m 296.5,1220.5 c -2.145,2.96 -5.145,5.79 -9,8.5 -5.064,3.19 -10.064,6.36 -15,9.5 -6.933,3.13 -13.6,6.8 -20,11 -2.379,3.26 -3.379,6.92 -3,11 -1.242,-3.24 -1.076,-6.57 0.5,-10 2.075,-4.08 4.908,-7.58 8.5,-10.5 11.405,-8.87 24.072,-15.37 38,-19.5 z"
       id="path141" />
  </g>
  <g
     id="g142"
     transform="matrix(0.12079142,0,0,0.12079142,-9.3798609,-23.856268)">
    <path
       style="opacity:1"
       fill="#d26623"
       d="m 364.5,1290.5 c -0.163,-2.36 0.003,-4.69 0.5,-7 0.309,1.27 0.809,2.43 1.5,3.5 13.28,0.57 25.28,-3.09 36,-11 4.167,-4.17 8.333,-8.33 12.5,-12.5 3.051,-4.11 3.051,-8.11 0,-12 -2.257,-1.55 -4.424,-3.21 -6.5,-5 -29.047,-1.43 -57.047,-7.6 -84,-18.5 -3.613,-0.88 -7.28,-1.38 -11,-1.5 -14.379,1.68 -28.046,5.68 -41,12 4.936,-3.14 9.936,-6.31 15,-9.5 3.855,-2.71 6.855,-5.54 9,-8.5 7.201,-3.46 14.701,-6.46 22.5,-9 40.377,17.24 82.544,23.91 126.5,20 0.237,3.91 -0.596,7.58 -2.5,11 -13.189,24.68 -33.023,41.51 -59.5,50.5 -4.928,1.42 -9.928,1.75 -15,1 -1.824,-0.66 -3.157,-1.83 -4,-3.5 z"
       id="path142" />
  </g>
  <g
     id="g143"
     transform="matrix(0.12079142,0,0,0.12079142,-9.3798609,-23.856268)">
    <path
       style="opacity:1"
       fill="#f48b3b"
       d="m 754.5,1237.5 c 6.709,3.35 13.375,6.69 20,10 4.713,3.78 6.047,8.45 4,14 -1.536,-1.53 -2.536,-3.53 -3,-6 -13.791,5.13 -26.791,3.8 -39,-4 -1.226,0.86 -2.56,0.86 -4,0 -6.967,-5 -14.634,-8.66 -23,-11 -2.687,-0.16 -5.354,0 -8,0.5 -1.076,1.73 -1.243,3.56 -0.5,5.5 13.096,6.13 24.929,14.13 35.5,24 0.494,1.53 1.161,2.86 2,4 0.165,3.35 -0.002,6.68 -0.5,10 -1.194,-2.12 -1.86,-4.46 -2,-7 -1.098,1.47 -2.598,2.3 -4.5,2.5 -14.121,1.84 -27.787,0.18 -41,-5 -8.669,-4.67 -17.002,-9.83 -25,-15.5 -0.798,0.46 -1.131,1.12 -1,2 -1.963,-1.46 -3.796,-3.13 -5.5,-5 -0.399,0.23 -0.565,0.56 -0.5,1 -2.863,-4.98 -5.863,-5.14 -9,-0.5 0.568,1.87 1.235,3.7 2,5.5 4.702,4.54 8.869,9.54 12.5,15 1.079,2.56 1.579,5.23 1.5,8 0.268,1.6 -0.066,2.93 -1,4 0.162,-2.03 -0.005,-4.03 -0.5,-6 -0.483,0.95 -0.649,1.95 -0.5,3 -3.325,0.33 -6.659,0.66 -10,1 -17.28,-3.1 -31.114,-11.77 -41.5,-26 0.346,-4.73 2.846,-8.23 7.5,-10.5 31.061,-5.35 61.394,-13.35 91,-24 5,-0.67 10,-0.67 15,0 10.023,2.62 19.69,6.12 29,10.5 z"
       id="path143" />
  </g>
  <g
     id="g144"
     transform="matrix(0.12079142,0,0,0.12079142,-9.3798609,-23.856268)">
    <path
       style="opacity:1"
       fill="#f48c3b"
       d="m 364.5,1290.5 c -1.238,-1.71 -1.905,-3.71 -2,-6 0.641,-3.39 1.808,-6.72 3.5,-10 5.28,-5.27 9.78,-11.11 13.5,-17.5 -0.558,-2.06 -1.891,-3.22 -4,-3.5 -2.562,0.57 -4.562,1.91 -6,4 -2.98,2.64 -5.98,5.31 -9,8 -0.656,-0.78 -1.489,-1.44 -2.5,-2 -20.056,13.69 -42.056,19.36 -66,17 -0.333,-1.33 -0.667,-2.67 -1,-4 -0.191,2.21 -0.691,4.21 -1.5,6 -0.315,-3.87 0.018,-7.54 1,-11 0.969,0.81 1.802,1.81 2.5,3 1.906,-5.37 5.072,-9.87 9.5,-13.5 8.619,-5.56 17.453,-10.73 26.5,-15.5 0.163,-1.89 -0.671,-3.39 -2.5,-4.5 -3.241,-0.79 -6.241,-0.29 -9,1.5 -0.235,-0.6 -0.735,-0.93 -1.5,-1 -7.561,3.1 -14.728,6.77 -21.5,11 -0.06,-0.54 -0.393,-0.88 -1,-1 -5.613,2.13 -11.279,4.3 -17,6.5 -8.551,1.11 -16.885,0.28 -25,-2.5 -0.974,2.24 -1.308,4.58 -1,7 -0.838,-0.34 -1.172,-1.01 -1,-2 -0.379,-4.08 0.621,-7.74 3,-11 6.4,-4.2 13.067,-7.87 20,-11 12.954,-6.32 26.621,-10.32 41,-12 3.72,0.12 7.387,0.62 11,1.5 26.953,10.9 54.953,17.07 84,18.5 2.076,1.79 4.243,3.45 6.5,5 3.051,3.89 3.051,7.89 0,12 -4.167,4.17 -8.333,8.33 -12.5,12.5 -10.72,7.91 -22.72,11.57 -36,11 -0.691,-1.07 -1.191,-2.23 -1.5,-3.5 -0.497,2.31 -0.663,4.64 -0.5,7 z"
       id="path144" />
  </g>
  <g
     id="g145"
     transform="matrix(0.12079142,0,0,0.12079142,-9.3798609,-23.856268)">
    <path
       style="opacity:1"
       fill="#bfbcb9"
       d="m 765.5,1225.5 c 19.741,6.04 38.408,14.54 56,25.5 11.581,10.7 11.914,21.7 1,33 -4.834,3.25 -9.834,6.25 -15,9 -16.255,7.13 -32.922,13.13 -50,18 -77.232,18.23 -155.565,27.06 -235,26.5 -80.53,-0.25 -160.197,-8.42 -239,-24.5 -23.419,-5.03 -45.752,-13.03 -67,-24 -22.541,-14.31 -22.541,-28.64 0,-43 12.201,-6.33 24.534,-12.17 37,-17.5 0.683,0.36 1.35,0.7 2,1 -6.573,5.12 -11.739,11.45 -15.5,19 -2.976,8.44 -1.476,15.94 4.5,22.5 10.554,6.3 21.888,8.13 34,5.5 -0.597,8.72 2.403,15.89 9,21.5 22.791,6.48 44.458,3.65 65,-8.5 2.026,4.2 4.693,8.03 8,11.5 7.801,4.94 16.135,5.94 25,3 34.767,-12.6 59.767,-35.77 75,-69.5 1.5,-0.33 3,-0.67 4.5,-1 32.658,3.82 65.325,3.82 98,0 1.5,0.33 3,0.67 4.5,1 16.667,35.51 43.667,59.01 81,70.5 14.009,2.29 23.176,-3.21 27.5,-16.5 16.953,10.86 35.453,15.03 55.5,12.5 13.473,-2.48 19.973,-10.65 19.5,-24.5 8.557,1.48 17.057,0.98 25.5,-1.5 10.224,-3.61 14.391,-10.78 12.5,-21.5 -4.435,-12.26 -12.268,-21.59 -23.5,-28 z"
       id="path145" />
  </g>
  <g
     id="g146"
     transform="matrix(0.12079142,0,0,0.12079142,-9.3798609,-23.856268)">
    <path
       style="opacity:1"
       fill="#d16725"
       d="m 738.5,1274.5 c 0,-0.67 0,-1.33 0,-2 3.808,9.57 0.808,15.73 -9,18.5 -19.554,1.89 -37.554,-2.44 -54,-13 -3.492,-5.65 -7.159,-11.15 -11,-16.5 -0.131,-0.88 0.202,-1.54 1,-2 7.998,5.67 16.331,10.83 25,15.5 13.213,5.18 26.879,6.84 41,5 1.902,-0.2 3.402,-1.03 4.5,-2.5 0.14,2.54 0.806,4.88 2,7 0.498,-3.32 0.665,-6.65 0.5,-10 z"
       id="path146" />
  </g>
  <g
     id="g147"
     transform="matrix(0.12079142,0,0,0.12079142,-9.3798609,-23.856268)">
    <path
       style="opacity:1"
       fill="#f7cb84"
       d="m 362.5,1284.5 c 0.091,-9.6 2.424,-18.6 7,-27 1.438,-2.09 3.438,-3.43 6,-4 2.109,0.28 3.442,1.44 4,3.5 -3.72,6.39 -8.22,12.23 -13.5,17.5 -1.692,3.28 -2.859,6.61 -3.5,10 z"
       id="path147" />
  </g>
  <g
     id="g148"
     transform="matrix(0.12079142,0,0,0.12079142,-9.3798609,-23.856268)">
    <path
       style="opacity:1"
       fill="#faca81"
       d="m 290.5,1271.5 c 6.548,-11.88 15.548,-21.55 27,-29 2.759,-1.79 5.759,-2.29 9,-1.5 1.829,1.11 2.663,2.61 2.5,4.5 -9.047,4.77 -17.881,9.94 -26.5,15.5 -4.428,3.63 -7.594,8.13 -9.5,13.5 -0.698,-1.19 -1.531,-2.19 -2.5,-3 z"
       id="path148" />
  </g>
  <g
     id="g149"
     transform="matrix(0.12079142,0,0,0.12079142,-9.3798609,-23.856268)">
    <path
       style="opacity:1"
       fill="#d56a25"
       d="m 294.5,1252.5 c -8.593,11.93 -20.26,16.76 -35,14.5 -3.535,-0.66 -6.535,-2.16 -9,-4.5 -0.308,-2.42 0.026,-4.76 1,-7 8.115,2.78 16.449,3.61 25,2.5 5.721,-2.2 11.387,-4.37 17,-6.5 0.607,0.12 0.94,0.46 1,1 z"
       id="path149" />
  </g>
  <g
     id="g150"
     transform="matrix(0.12079142,0,0,0.12079142,-9.3798609,-23.856268)">
    <path
       style="opacity:1"
       fill="#d26826"
       d="m 732.5,1251.5 c 1.44,0.86 2.774,0.86 4,0 12.209,7.8 25.209,9.13 39,4 0.464,2.47 1.464,4.47 3,6 -2.789,3.16 -6.456,4.99 -11,5.5 -8.057,1.29 -15.724,0.12 -23,-3.5 -3.715,-4.38 -7.715,-8.38 -12,-12 z"
       id="path150" />
  </g>
  <g
     id="g151"
     transform="matrix(0.12079142,0,0,0.12079142,-9.3798609,-23.856268)">
    <path
       style="opacity:1"
       fill="#f9c980"
       d="m 658.5,1257.5 c 5.696,8.71 8.03,18.04 7,28 0.079,-2.77 -0.421,-5.44 -1.5,-8 -3.631,-5.46 -7.798,-10.46 -12.5,-15 -0.765,-1.8 -1.432,-3.63 -2,-5.5 3.137,-4.64 6.137,-4.48 9,0.5 z"
       id="path151" />
  </g>
  <g
     id="g152"
     transform="matrix(0.12079142,0,0,0.12079142,-9.3798609,-23.856268)">
    <path
       style="opacity:1"
       fill="#faca81"
       d="m 709.5,1240.5 c 8.532,6.02 16.366,13.02 23.5,21 2.546,3.36 4.379,7.03 5.5,11 0,0.67 0,1.33 0,2 -0.839,-1.14 -1.506,-2.47 -2,-4 -10.571,-9.87 -22.404,-17.87 -35.5,-24 -0.743,-1.94 -0.576,-3.77 0.5,-5.5 2.646,-0.5 5.313,-0.66 8,-0.5 z"
       id="path152" />
  </g>
  <g
     id="g153"
     transform="matrix(0.12079142,0,0,0.12079142,-9.3798609,-23.856268)">
    <path
       style="opacity:1"
       fill="#d26724"
       d="m 360.5,1265.5 c -2.077,3.15 -3.91,6.48 -5.5,10 -11.672,8.72 -24.838,13.72 -39.5,15 -6.702,0.16 -13.369,-0.17 -20,-1 -3.446,-1.11 -5.446,-3.45 -6,-7 0.809,-1.79 1.309,-3.79 1.5,-6 0.333,1.33 0.667,2.67 1,4 23.944,2.36 45.944,-3.31 66,-17 1.011,0.56 1.844,1.22 2.5,2 z"
       id="path153" />
  </g>
  <g
     id="g154"
     transform="matrix(0.12079142,0,0,0.12079142,-9.3798609,-23.856268)">
    <path
       style="opacity:1"
       fill="#914c25"
       d="m 295.5,1289.5 c 6.631,0.83 13.298,1.16 20,1 -2.646,0.66 -5.479,1 -8.5,1 -4.133,0.21 -7.966,-0.45 -11.5,-2 z"
       id="path154" />
  </g>
</svg>
